{"title":"Waka Flocka Flame ft Roscoe Dash and Wale - No Hands [KingPinVid","uid":5839230,"size":99024932,"categoryP":"video","categoryS":"music_videos","magnet":"?xt=urn:btih:c16ec82aca3d05844cbe865f58ac585ecfb4b350&amp;dn=Waka+Flocka+Flame+ft+Roscoe+Dash+and+Wale+-+No+Hands+%5BKingPinVid&amp;tr=udp%3A%2F%2Ftracker.openbittorrent.com%3A80&amp;tr=udp%3A%2F%2Fopen.demonii.com%3A1337&amp;tr=udp%3A%2F%2Ftracker.coppersurfer.tk%3A6969&amp;tr=udp%3A%2F%2Fexodus.desync.com%3A6969","seeders":0,"leechers":0,"uploader":"KingPinMan","files":5,"time":1284862718,"description":" &lt;a href=&quot;http://img842.imageshack.us/img842/4158/wakaflockanohands.png&quot; rel=&quot;nofollow&quot; target=&quot;_NEW&quot;&gt;http://img842.imageshack.us/img842/4158/wakaflockanohands.png&lt;/a&gt;\n\n[IMG]http://img818.imageshack.us/img818/253/wakaflockanohands2.png[/IMG]\n\n[code]General\nComplete name                    : Waka Flocka ft Roscoe Dash and Wale - No Hands [KingPinVideos].mpg\nFormat                           : MPEG-PS\nFile size                        : 94.4 MiB\nDuration                         : 4mn 37s\nOverall bit rate                 : 2 856 Kbps\nWriting library                  : encoded by TMPGEnc 4.0 XPress Version. 4.7.4.299\n\nVideo\nID                               : 224 (0xE0)\nFormat                           : MPEG Video\nFormat version                   : Version 1\nFormat settings, BVOP            : Yes\nFormat settings, Matrix          : Default\nDuration                         : 4mn 37s\nBit rate mode                    : Constant\nBit rate                         : 2 615 Kbps\nNominal bit rate                 : 2 700 Kbps\nWidth                            : 384 pixels\nHeight                           : 208 pixels\nDisplay aspect ratio             : 16:9\nFrame rate                       : 29.970 fps\nResolution                       : 8 bits\nScan type                        : Progressive\nBits/(Pixel*Frame)               : 1.092\nStream size                      : 86.5 MiB (92%)\nWriting library                  : TMPGEnc XPress 4.7.4.299\n\nAudio\nID                               : 192 (0xC0)\nFormat                           : MPEG Audio\nFormat version                   : Version 1\nFormat profile                   : Layer 2\nDuration                         : 4mn 37s\nBit rate mode                    : Constant\nBit rate                         : 128 Kbps\nChannel(s)                       : 2 channels\nSampling rate                    : 48.0 KHz\nStream size                      : 4.23 MiB (4%)[/code]","torrent":{"xt":"urn:btih:c16ec82aca3d05844cbe865f58ac585ecfb4b350","amp;dn":"Waka+Flocka+Flame+ft+Roscoe+Dash+and+Wale+-+No+Hands+%5BKingPinVid","amp;tr":["udp%3A%2F%2Ftracker.openbittorrent.com%3A80","udp%3A%2F%2Fopen.demonii.com%3A1337","udp%3A%2F%2Ftracker.coppersurfer.tk%3A6969","udp%3A%2F%2Fexodus.desync.com%3A6969"],"infoHash":"c16ec82aca3d05844cbe865f58ac585ecfb4b350","infoHashBuffer":{"type":"Buffer","data":[193,110,200,42,202,61,5,132,76,190,134,95,88,172,88,94,207,180,179,80]},"announce":[],"urlList":[]}}